# xmcd CD database file
#
# Track frame offsets:
#	150
#	23227
#	43603
#	56706
#	80168
#	98977
#	129532
#	147346
#	176527
#	196025
#	213312
#	223957
#	235355
#	267679
#
# Disc length: 3883 seconds
#
# Revision: 0
# Processed by: cddbd v1.5PL3 Copyright (c) Steve Scherf et al.
# Submitted via: CDex 1.51
#
DISCID=da0f290e
DTITLE=Ruby Blue - Skin
DYEAR=2003
DGENRE=Jazz
TTITLE0=Agua De Beber
TTITLE1=Embraceable You
TTITLE2=Deed I Do
TTITLE3=Better Than Anything
TTITLE4=Love For Sale
TTITLE5=The Masquerade Is Over
TTITLE6=I Love Being Here With You
TTITLE7=The Nearness of You
TTITLE8=I Love You
TTITLE9=Close Your Eyes
TTITLE10=Mood Indigo
TTITLE11=Easy to Love
TTITLE12=Lover Man
TTITLE13=Skin (I'm In)
EXTD=YEAR: 2003
EXTT0=
EXTT1=
EXTT2=
EXTT3=
EXTT4=
EXTT5=
EXTT6=
EXTT7=
EXTT8=
EXTT9=
EXTT10=
EXTT11=
EXTT12=
EXTT13=
PLAYORDER=
